<svg width="122" height="42" viewBox="0 0 122 42" fill="none" xmlns="http://www.w3.org/2000/svg">
<path fill-rule="evenodd" clip-rule="evenodd" d="M64.5849 30.2138C64.91 30.2138 65.1575 30.2914 65.3225 30.4491C65.4874 30.6068 65.5699 30.8154 65.5699 31.0774C65.5699 31.3103 65.4923 31.5141 65.3346 31.6839C65.1769 31.8537 64.9683 31.9411 64.7062 31.9411H64.1507V32.8047H63.6582V30.2162H64.5849V30.2138ZM64.648 31.4462C64.7693 31.4462 64.8712 31.4122 64.9537 31.3419C65.0362 31.2739 65.0798 31.1842 65.0798 31.075C65.0798 30.9561 65.0386 30.8664 64.9585 30.8009C64.8785 30.7354 64.7742 30.7038 64.648 30.7038H64.1555V31.4438H64.648V31.4462ZM66.1158 31.1259C66.3123 30.927 66.5524 30.83 66.8363 30.83C67.1201 30.83 67.3579 30.9294 67.5568 31.1259C67.7557 31.3224 67.8528 31.5626 67.8528 31.8465C67.8528 32.1303 67.7533 32.3681 67.5568 32.567C67.3603 32.7635 67.1201 32.863 66.8363 32.863C66.5524 32.863 66.3123 32.7635 66.1158 32.567C65.9168 32.3681 65.8198 32.1279 65.8198 31.8465C65.8174 31.5651 65.9168 31.3249 66.1158 31.1259ZM66.4651 32.2176C66.567 32.3195 66.6907 32.3729 66.8363 32.3729C66.9794 32.3729 67.1031 32.322 67.2075 32.2176C67.3094 32.1158 67.3627 31.992 67.3627 31.8465C67.3627 31.7033 67.3118 31.5796 67.2075 31.4777C67.1056 31.3758 66.9818 31.3224 66.8363 31.3224C66.6931 31.3224 66.5694 31.3734 66.4651 31.4777C66.3632 31.5796 66.3098 31.7033 66.3098 31.8465C66.3123 31.992 66.3632 32.1158 66.4651 32.2176ZM70.2885 30.893H70.844L70.1963 32.8047H69.7499L69.3957 31.7567L69.0415 32.8047H68.5951L67.9474 30.893H68.5029L68.8426 32.1255L69.2138 30.893H69.5849L69.9537 32.1255L70.2885 30.893ZM72.8479 31.8465C72.8479 31.8829 72.8455 31.9338 72.8407 32.0017H71.4505C71.4869 32.1327 71.5524 32.2371 71.6495 32.3171C71.7465 32.3947 71.8678 32.4336 72.0182 32.4336C72.2317 32.4336 72.421 32.3753 72.5883 32.2565L72.7315 32.6834C72.7096 32.6956 72.683 32.7126 72.6441 32.7344C72.6078 32.7562 72.5253 32.7829 72.4015 32.8144C72.2778 32.8484 72.1468 32.8654 72.011 32.8654C71.6568 32.8654 71.3899 32.7708 71.2104 32.5791C71.0309 32.3899 70.9411 32.1449 70.9411 31.8465C70.9411 31.5481 71.026 31.3055 71.1958 31.1138C71.3656 30.9246 71.6107 30.8275 71.9285 30.8275C72.2269 30.8275 72.4549 30.9173 72.615 31.0968C72.7679 31.2764 72.8479 31.5262 72.8479 31.8465ZM71.4603 31.6306H72.3239C72.3239 31.5384 72.2851 31.4535 72.2099 31.3758C72.1347 31.2982 72.0279 31.2594 71.8921 31.2594C71.7756 31.2594 71.6762 31.3006 71.5888 31.3807C71.5039 31.4632 71.4603 31.5456 71.4603 31.6306ZM73.6485 31.2958C73.7116 31.1551 73.8135 31.0435 73.9566 30.9658C74.0998 30.8882 74.2647 30.8421 74.4491 30.8275V31.4098C74.3205 31.3758 74.1968 31.3758 74.0779 31.4098C73.959 31.4438 73.8596 31.5117 73.7747 31.6111C73.6898 31.713 73.6485 31.8416 73.6485 31.9993V32.7999H73.156V30.8882H73.6485V31.2958ZM76.5476 31.8465C76.5476 31.8829 76.5452 31.9338 76.5403 32.0017H75.1502C75.1866 32.1327 75.2521 32.2371 75.3491 32.3171C75.4462 32.3947 75.5675 32.4336 75.7179 32.4336C75.9314 32.4336 76.1206 32.3753 76.288 32.2565L76.4311 32.6834C76.4093 32.6956 76.3826 32.7126 76.3438 32.7344C76.3074 32.7562 76.2249 32.7829 76.1012 32.8144C75.9775 32.8484 75.8465 32.8654 75.7106 32.8654C75.3564 32.8654 75.0896 32.7708 74.91 32.5791C74.7305 32.3899 74.6408 32.1449 74.6408 31.8465C74.6408 31.5481 74.7257 31.3055 74.8955 31.1138C75.0653 30.9246 75.3103 30.8275 75.6281 30.8275C75.9265 30.8275 76.1546 30.9173 76.3147 31.0968C76.4675 31.2764 76.5476 31.5262 76.5476 31.8465ZM75.1599 31.6306H76.0236C76.0236 31.5384 75.9848 31.4535 75.9096 31.3758C75.8343 31.2982 75.7276 31.2594 75.5917 31.2594C75.4753 31.2594 75.3758 31.3006 75.2885 31.3807C75.2036 31.4632 75.1599 31.5456 75.1599 31.6306ZM77.7485 30.83C77.9838 30.83 78.1803 30.9197 78.3331 31.0968V30.09H78.8256V32.8023H78.3331V32.5985C78.1779 32.7756 77.9838 32.8654 77.7485 32.8654C77.484 32.8654 77.2584 32.7659 77.0716 32.567C76.8848 32.3681 76.7926 32.1279 76.7926 31.8489C76.7926 31.5699 76.8848 31.3297 77.0716 31.1308C77.2584 30.9294 77.484 30.83 77.7485 30.83ZM77.4404 32.2176C77.5423 32.3195 77.666 32.3729 77.8115 32.3729C77.9547 32.3729 78.0784 32.322 78.1827 32.2176C78.2846 32.1158 78.338 31.992 78.338 31.8465C78.338 31.7033 78.287 31.5796 78.1827 31.4777C78.0808 31.3758 77.9571 31.3224 77.8115 31.3224C77.6684 31.3224 77.5447 31.3734 77.4404 31.4777C77.3385 31.5796 77.2851 31.7033 77.2851 31.8465C77.2851 31.992 77.3385 32.1158 77.4404 32.2176ZM81.5719 30.83C81.8363 30.83 82.0619 30.9294 82.2487 31.1284C82.4355 31.3273 82.5277 31.5675 82.5277 31.8465C82.5277 32.1279 82.4355 32.3656 82.2487 32.5646C82.0619 32.7635 81.8363 32.863 81.5719 32.863C81.3365 32.863 81.14 32.7756 80.9872 32.5961V32.7999H80.4947V30.0876H80.9872V31.0944C81.14 30.9197 81.3341 30.83 81.5719 30.83ZM81.14 32.2176C81.2419 32.3195 81.3657 32.3729 81.5112 32.3729C81.6543 32.3729 81.7781 32.322 81.88 32.2176C81.9819 32.1158 82.0352 31.992 82.0352 31.8465C82.0352 31.7033 81.9843 31.5796 81.88 31.4777C81.7781 31.3758 81.6543 31.3224 81.5112 31.3224C81.3681 31.3224 81.2444 31.3734 81.14 31.4777C81.0381 31.5796 80.9848 31.7033 80.9848 31.8465C80.9848 31.992 81.0381 32.1158 81.14 32.2176ZM84.0998 30.893H84.6553L83.4229 33.7897H82.8674L83.3526 32.647L82.6199 30.893H83.1755L83.6316 31.9945L84.0998 30.893ZM87.6709 31.4122C87.8188 31.451 87.9304 31.5262 88.0008 31.6354C88.0711 31.747 88.1075 31.8756 88.1075 32.0236C88.1075 32.2516 88.0275 32.4384 87.8698 32.584C87.7097 32.7295 87.4938 32.8023 87.222 32.8023H86.0745V30.2138H86.9988C87.3094 30.2138 87.552 30.2696 87.7242 30.3787C87.8965 30.4903 87.9838 30.6601 87.9838 30.8906C87.9838 31.0143 87.9547 31.1211 87.8965 31.2109C87.8383 31.3055 87.763 31.371 87.6709 31.4122ZM86.5646 30.7062V31.1987H87.028C87.3361 31.1987 87.4913 31.1162 87.4913 30.9513C87.4913 30.8567 87.4549 30.7912 87.3797 30.7572C87.3045 30.7232 87.1881 30.7062 87.028 30.7062H86.5646ZM87.091 32.3098C87.4404 32.3098 87.6151 32.1958 87.6151 31.9702C87.6151 31.8562 87.569 31.7737 87.4768 31.7155C87.3846 31.6597 87.256 31.6306 87.091 31.6306H86.567V32.3098H87.091ZM88.9639 30.5461C88.8984 30.6116 88.8184 30.6432 88.7237 30.6432C88.6291 30.6432 88.5491 30.6116 88.4836 30.5461C88.4181 30.4806 88.3865 30.4006 88.3865 30.306C88.3865 30.2113 88.4181 30.1313 88.4836 30.0658C88.5491 30.0003 88.6291 29.9663 88.7237 29.9663C88.8184 29.9663 88.8984 29.9978 88.9639 30.0658C89.0294 30.1313 89.061 30.2113 89.061 30.306C89.0634 30.4006 89.0294 30.4806 88.9639 30.5461ZM88.4763 32.8023V30.8906H88.9688V32.8023H88.4763ZM90.3565 32.3705C90.536 32.3705 90.684 32.3123 90.8004 32.1982L91.0042 32.6373C90.8465 32.7902 90.6257 32.8654 90.3419 32.8654C90.0168 32.8654 89.7572 32.7684 89.5656 32.5743C89.3739 32.3802 89.2793 32.1376 89.2793 31.8489C89.2793 31.5578 89.3763 31.3176 89.568 31.1235C89.7621 30.9294 90.0192 30.8324 90.3419 30.8324C90.6136 30.8324 90.8344 30.9076 91.0042 31.0604L90.8004 31.5044C90.6815 31.3855 90.5336 31.3273 90.3565 31.3273C90.1794 31.3273 90.0362 31.3782 89.9319 31.4777C89.8252 31.5772 89.7718 31.7033 89.7718 31.8513C89.7718 32.0017 89.8252 32.1255 89.9319 32.2249C90.0386 32.322 90.1794 32.3705 90.3565 32.3705ZM91.4991 32.2589V31.3224H91.2517V30.8906H91.4991V30.2113H91.9916V30.8906H92.3628V31.3224H91.9916V32.123C91.9916 32.2589 92.0231 32.3438 92.0862 32.3778C92.1493 32.4117 92.2415 32.4093 92.3628 32.3705V32.8023C92.2609 32.8436 92.1396 32.863 91.9989 32.863C91.829 32.863 91.7029 32.8096 91.6204 32.7004C91.5403 32.5913 91.4991 32.4457 91.4991 32.2589ZM92.9353 31.1259C93.1318 30.927 93.372 30.83 93.6558 30.83C93.9397 30.83 94.1774 30.9294 94.3763 31.1259C94.5753 31.3224 94.6723 31.5626 94.6723 31.8465C94.6723 32.1303 94.5729 32.3681 94.3763 32.567C94.1798 32.7635 93.9397 32.863 93.6558 32.863C93.372 32.863 93.1342 32.7635 92.9353 32.567C92.7364 32.3681 92.6393 32.1279 92.6393 31.8465C92.6393 31.5651 92.7388 31.3249 92.9353 31.1259ZM93.2871 32.2176C93.389 32.3195 93.5127 32.3729 93.6583 32.3729C93.8014 32.3729 93.9251 32.322 94.0294 32.2176C94.1313 32.1158 94.1847 31.992 94.1847 31.8465C94.1847 31.7033 94.1337 31.5796 94.0294 31.4777C93.9275 31.3758 93.8038 31.3224 93.6583 31.3224C93.5151 31.3224 93.3914 31.3734 93.2871 31.4777C93.1852 31.5796 93.1318 31.7033 93.1318 31.8465C93.1318 31.992 93.1828 32.1158 93.2871 32.2176ZM95.4753 31.2958C95.5384 31.1551 95.6403 31.0435 95.7834 30.9658C95.9266 30.8882 96.0915 30.8421 96.2759 30.8275V31.4098C96.1473 31.3758 96.0236 31.3758 95.9047 31.4098C95.7859 31.4438 95.6864 31.5117 95.6015 31.6111C95.5166 31.713 95.4753 31.8416 95.4753 31.9993V32.7999H94.9828V30.8882H95.4753V31.2958ZM97.8795 30.893H98.4351L97.2027 33.7897H96.6471L97.1323 32.647L96.3996 30.893H96.9552L97.4113 31.9945L97.8795 30.893ZM99.175 32.8023H98.6825V30.2138H100.286V30.7062H99.175V31.2618H100.099V31.7543H99.175V32.8023ZM101.142 30.5461C101.077 30.6116 100.997 30.6432 100.902 30.6432C100.808 30.6432 100.728 30.6116 100.662 30.5461C100.597 30.4806 100.563 30.4006 100.563 30.306C100.563 30.2113 100.594 30.1313 100.662 30.0658C100.728 30.0003 100.808 29.9663 100.902 29.9663C100.997 29.9663 101.077 29.9978 101.142 30.0658C101.208 30.1313 101.242 30.2113 101.242 30.306C101.24 30.4006 101.208 30.4806 101.142 30.5461ZM100.655 32.8023V30.8906H101.147V32.8023H100.655ZM102.683 30.83C102.906 30.83 103.081 30.9027 103.209 31.0507C103.336 31.1963 103.401 31.4122 103.401 31.6936V32.8023H102.909V31.7543C102.909 31.6039 102.88 31.4947 102.819 31.4268C102.761 31.3564 102.666 31.3224 102.537 31.3224C102.414 31.3224 102.312 31.3637 102.229 31.4462C102.147 31.5287 102.106 31.6524 102.106 31.8174V32.8047H101.613V30.893H102.106V31.0774C102.241 30.9125 102.436 30.83 102.683 30.83ZM105.25 30.893H105.742V32.8047H105.25V32.601C105.094 32.7781 104.9 32.8678 104.665 32.8678C104.401 32.8678 104.175 32.7684 103.988 32.5694C103.801 32.3705 103.709 32.1303 103.709 31.8513C103.709 31.5723 103.801 31.3322 103.988 31.1332C104.175 30.9343 104.401 30.8348 104.665 30.8348C104.9 30.8348 105.097 30.9246 105.25 31.1017V30.893ZM104.355 32.2176C104.456 32.3195 104.58 32.3729 104.726 32.3729C104.871 32.3729 104.993 32.322 105.097 32.2176C105.199 32.1158 105.252 31.992 105.252 31.8465C105.252 31.7033 105.201 31.5796 105.097 31.4777C104.995 31.3758 104.871 31.3224 104.726 31.3224C104.58 31.3224 104.459 31.3734 104.355 31.4777C104.253 31.5796 104.199 31.7033 104.199 31.8465C104.199 31.992 104.253 32.1158 104.355 32.2176ZM107.275 30.83C107.499 30.83 107.673 30.9027 107.802 31.0507C107.928 31.1963 107.994 31.4122 107.994 31.6936V32.8023H107.501V31.7543C107.501 31.6039 107.472 31.4947 107.411 31.4268C107.353 31.3564 107.258 31.3224 107.13 31.3224C107.006 31.3224 106.904 31.3637 106.822 31.4462C106.739 31.5287 106.698 31.6524 106.698 31.8174V32.8047H106.206V30.893H106.698V31.0774C106.836 30.9125 107.028 30.83 107.275 30.83ZM109.379 32.3705C109.558 32.3705 109.706 32.3123 109.823 32.1982L110.027 32.6373C109.869 32.7902 109.648 32.8654 109.364 32.8654C109.039 32.8654 108.78 32.7684 108.588 32.5743C108.396 32.3802 108.302 32.1376 108.302 31.8489C108.302 31.5578 108.399 31.3176 108.59 31.1235C108.784 30.9294 109.042 30.8324 109.364 30.8324C109.636 30.8324 109.857 30.9076 110.027 31.0604L109.823 31.5044C109.704 31.3855 109.556 31.3273 109.379 31.3273C109.202 31.3273 109.059 31.3782 108.954 31.4777C108.847 31.5772 108.794 31.7033 108.794 31.8513C108.794 32.0017 108.847 32.1255 108.954 32.2249C109.061 32.322 109.202 32.3705 109.379 32.3705ZM112.123 31.8465C112.123 31.8829 112.12 31.9338 112.115 32.0017H110.725C110.762 32.1327 110.827 32.2371 110.924 32.3171C111.021 32.3947 111.143 32.4336 111.293 32.4336C111.506 32.4336 111.696 32.3753 111.863 32.2565L112.006 32.6834C111.984 32.6956 111.958 32.7126 111.919 32.7344C111.882 32.7562 111.8 32.7829 111.676 32.8144C111.553 32.8484 111.422 32.8654 111.286 32.8654C110.931 32.8654 110.665 32.7708 110.485 32.5791C110.306 32.3899 110.216 32.1449 110.216 31.8465C110.216 31.5481 110.301 31.3055 110.471 31.1138C110.64 30.9246 110.883 30.8275 111.203 30.8275C111.502 30.8275 111.73 30.9173 111.89 31.0968C112.045 31.2764 112.123 31.5262 112.123 31.8465ZM110.737 31.6306H111.601C111.601 31.5384 111.562 31.4535 111.487 31.3758C111.412 31.2982 111.305 31.2594 111.169 31.2594C111.053 31.2594 110.953 31.3006 110.866 31.3807C110.779 31.4632 110.737 31.5456 110.737 31.6306Z" fill="white"/>
<path fill-rule="evenodd" clip-rule="evenodd" d="M70.5338 24.6461C72.3679 24.6461 73.9011 24.0129 75.1311 22.7465L76.48 25.9392C75.7085 26.6354 74.7818 27.1813 73.6998 27.5767C72.6178 27.9722 71.543 28.1687 70.4804 28.1687C67.7657 28.1687 65.444 27.2201 63.5178 25.3205C61.5915 23.421 60.6284 21.1429 60.6284 18.4816C60.6284 15.8203 61.5915 13.5422 63.5178 11.6427C65.444 9.74311 67.7657 8.79454 70.4804 8.79454C71.5455 8.79454 72.6178 8.98619 73.6998 9.37193C74.7818 9.75767 75.7085 10.2987 76.48 10.9949L75.1311 14.1876C73.8477 12.9406 72.3145 12.3171 70.5338 12.3171C68.7725 12.3171 67.2684 12.9188 66.019 14.1196C64.772 15.3205 64.1486 16.7761 64.1486 18.4816C64.1486 20.1871 64.772 21.6427 66.019 22.8436C67.266 24.0444 68.7725 24.6461 70.5338 24.6461ZM91.6716 9.23122H95.1942V27.7271H91.6716L82.4237 14.9566V27.7271H78.9011V9.23122H82.3922L91.6716 22.0478V9.23122ZM105.764 16.4971C106.883 16.6815 107.829 16.8926 108.598 17.1303C109.369 17.3681 110.095 17.6956 110.772 18.108C111.451 18.5204 111.96 19.0711 112.3 19.7601C112.64 20.4467 112.809 21.2691 112.809 22.2225C112.809 23.9474 112.162 25.369 110.869 26.4899C109.576 27.6083 107.744 28.1687 105.379 28.1687C102.407 28.1687 99.8934 27.14 97.8361 25.0852L99.5974 22.0017C100.349 22.8654 101.267 23.5204 102.349 23.9692C103.431 24.418 104.459 24.6437 105.432 24.6437C106.643 24.6437 107.589 24.4423 108.268 24.0372C108.947 23.6344 109.287 23.1007 109.287 22.4409C109.287 21.2667 108.04 20.4952 105.544 20.1289C103.011 19.7431 101.203 19.0881 100.121 18.1614C99.0394 17.2371 98.496 16.0386 98.496 14.5709C98.496 12.9576 99.1292 11.5893 100.396 10.4709C101.662 9.35252 103.397 8.79211 105.597 8.79211C107.982 8.79211 110.092 9.54418 111.926 11.0483L110.439 14.076C109.081 12.9018 107.448 12.3147 105.541 12.3147C104.513 12.3147 103.671 12.4748 103.008 12.7975C102.349 13.1177 102.016 13.6272 102.016 14.3258C102.016 14.9323 102.293 15.3909 102.841 15.7014C103.397 16.0119 104.369 16.2788 105.764 16.4971Z" fill="white"/>
<path fill-rule="evenodd" clip-rule="evenodd" d="M28.453 24.5192C29.4306 23.7284 29.9182 22.6489 29.9182 21.2808C29.9182 20.6137 29.8115 20.0024 29.6004 19.4469C29.3894 18.8938 29.0425 18.4207 28.5622 18.0302C28.0819 17.6396 27.4512 17.334 26.6676 17.1132C25.0957 16.6717 22.551 16.6717 20.9791 17.1132C20.1956 17.334 19.5649 17.6372 19.0845 18.0302C18.6042 18.4207 18.2573 18.8938 18.0463 19.4469C17.8353 19.9999 17.7285 20.6112 17.7285 21.2808C17.7285 22.6489 18.2185 23.7284 19.1937 24.5192C21.1732 26.1178 26.4736 26.1178 28.453 24.5192Z" fill="white"/>
<path d="M11.3036 21.1217H8.94629C8.94629 22.2389 9.34626 24.8049 9.43982 25.5059C9.90849 29.0176 11.3036 34.1697 20.4163 38.5752C24.6643 40.6288 38.3843 41.6051 46.0407 38.5752C54.5426 35.2106 57.0291 29.6787 57.0291 24.3031H36.3842C36.3842 27.1902 32.5215 29.4622 29.6505 30.2221C27.074 30.9041 19.0352 31.7054 14.3662 28.1563C13.9338 27.7762 11.2047 25.781 11.3036 21.1217Z" fill="white" stroke="white" stroke-width="0.242601"/>
<path d="M11.3036 21.8164H8.94629C8.94629 20.6992 9.34626 18.1332 9.43982 17.4322C9.90849 13.9205 11.3036 8.76836 20.4163 4.36294C24.6643 2.30931 38.3843 1.33299 46.0407 4.36294C54.5426 7.72754 57.0291 13.2594 57.0291 18.635H36.3842C36.3842 15.7479 32.5215 13.4759 29.6505 12.716C27.074 12.034 19.0352 11.2327 14.3662 14.7819C13.9338 15.1619 11.2047 17.1571 11.3036 21.8164Z" fill="white" stroke="white" stroke-width="0.242601"/>
</svg>
